<svg id="레이어_1" data-name="레이어 1" xmlns="http://www.w3.org/2000/svg" viewBox="0 0 70 70"><defs><style>.cls-1{fill:#12938b;}.cls-2{fill:#fff;}</style></defs><rect class="cls-1" width="70" height="70" rx="5.84"/><path class="cls-2" d="M62.6,11.81a3.45,3.45,0,0,0-2.2-.44H53a2.33,2.33,0,0,0-2.35,1.36L35.21,46,19.87,12.73a2.22,2.22,0,0,0-.93-1.1,2.65,2.65,0,0,0-1.28-.26H10a3.3,3.3,0,0,0-2.13.44c-.38.34-.55.95-.55,2V56.8a1.9,1.9,0,0,0,.41,1.41,2.09,2.09,0,0,0,1.59.42H16a2.13,2.13,0,0,0,1.59-.42A1.9,1.9,0,0,0,18,56.8V30.17L30,56.89a2.34,2.34,0,0,0,.88,1.17,2.77,2.77,0,0,0,1.41.27h5.94A2.6,2.6,0,0,0,39.62,58a2.93,2.93,0,0,0,.87-1.13l12-26.74V56.8a2,2,0,0,0,.4,1.41,2.12,2.12,0,0,0,1.6.42h6.69a2.28,2.28,0,0,0,1.52-.38"/></svg>